<?xml version="1.0" standalone="no"?>
<!DOCTYPE svg PUBLIC "-//W3C//DTD SVG 20010904//EN"
 "http://www.w3.org/TR/2001/REC-SVG-20010904/DTD/svg10.dtd">
<svg version="1.0" xmlns="http://www.w3.org/2000/svg"
 width="512.000000pt" height="512.000000pt" viewBox="0 0 512.000000 512.000000"
 preserveAspectRatio="xMidYMid meet">

<g transform="translate(0.000000,512.000000) scale(0.100000,-0.100000)"
fill="#000000" stroke="none">
<path d="M2315 5109 c-800 -83 -1501 -518 -1927 -1196 -487 -774 -516 -1777
-75 -2578 200 -364 487 -676 841 -913 238 -159 600 -311 876 -366 214 -43 295
-51 530 -51 236 0 333 10 532 51 880 184 1615 842 1898 1702 92 278 125 491
125 802 0 301 -32 513 -116 775 -124 390 -330 728 -622 1024 -399 404 -893
653 -1462 737 -123 18 -478 26 -600 13z m1764 -967 c19 -9 44 -30 55 -45 21
-28 21 -35 24 -1008 3 -1086 6 -1023 -62 -1072 l-31 -22 -612 -3 -613 -2 0
-139 0 -139 88 -4 c99 -5 131 -20 156 -73 19 -39 22 -155 4 -173 -17 -17
-1039 -17 -1056 0 -18 18 -15 134 4 173 25 53 57 68 157 73 l87 4 0 139 0 139
-613 2 -614 3 -36 28 c-23 17 -40 42 -47 65 -8 26 -10 334 -8 1009 3 965 3
972 24 1000 11 15 36 36 55 45 32 17 125 18 1519 18 1394 0 1487 -1 1519 -18z
m-84 -2756 c73 -31 143 -116 160 -194 13 -61 10 -62 -260 -62 -134 0 -250 3
-259 6 -33 13 -13 100 40 169 69 91 209 126 319 81z m-640 -15 c26 -15 38 -39
83 -162 54 -148 60 -182 39 -210 -30 -39 -30 -39 -917 -39 -887 0 -887 0 -917
39 -21 28 -15 62 39 210 45 123 57 147 83 162 28 18 68 19 795 19 727 0 767
-1 795 -19z"/>
<path d="M1049 4071 l-29 -30 2 -970 3 -970 23 -23 23 -23 1489 0 1489 0 23
23 23 23 0 975 0 976 -28 24 -28 24 -1480 0 -1481 0 -29 -29z m2949 -960 c2
-701 0 -886 -10 -893 -15 -9 -2828 -11 -2852 -2 -14 6 -16 93 -16 888 0 486 3
886 7 889 3 4 650 6 1437 5 l1431 -3 3 -884z m-1411 -967 c3 -8 -2 -23 -11
-32 -15 -15 -17 -15 -32 0 -21 21 -11 48 16 48 11 0 23 -7 27 -16z"/>
<path d="M1180 3110 l0 -830 1380 0 1380 0 0 830 0 830 -1380 0 -1380 0 0
-830z m1537 716 c77 -35 153 -113 191 -193 23 -52 27 -73 30 -195 l4 -138 45
0 c36 0 50 -6 74 -29 27 -27 29 -35 29 -100 l0 -71 55 0 c46 0 60 -4 80 -25
l25 -24 0 -241 0 -241 -25 -24 c-20 -21 -34 -25 -80 -25 -49 0 -55 -2 -55 -21
0 -25 -18 -60 -39 -76 -11 -9 -77 -12 -227 -13 l-212 0 -16 -25 c-21 -32 -51
-32 -72 0 l-16 25 -212 0 c-150 1 -216 4 -227 13 -21 16 -39 51 -39 76 0 19
-6 21 -55 21 -46 0 -60 4 -80 25 l-25 24 0 241 0 241 25 24 c20 21 34 25 80
25 l55 0 0 71 c0 65 2 73 29 100 24 23 38 29 74 29 l45 0 4 138 c3 124 6 143
31 197 46 100 132 175 242 212 66 22 189 12 262 -21z"/>
<path d="M2485 3791 c-92 -24 -173 -92 -213 -180 -23 -49 -27 -73 -30 -183
l-4 -128 322 0 322 0 -4 128 c-3 110 -7 134 -30 182 -51 110 -149 178 -266
185 -37 2 -80 1 -97 -4z"/>
<path d="M2102 3228 c-7 -7 -12 -38 -12 -70 l0 -58 470 0 470 0 0 58 c0 32 -5
63 -12 70 -17 17 -899 17 -916 0z"/>
<path d="M1935 3027 c-3 -7 -4 -109 -3 -227 l3 -215 275 -5 275 -5 33 -55 c18
-30 37 -55 42 -55 5 0 24 25 42 55 l33 55 275 5 275 5 0 225 0 225 -623 3
c-499 2 -624 0 -627 -11z m240 -120 c15 -28 26 -37 47 -37 63 0 76 -30 32 -71
-22 -20 -25 -30 -21 -63 9 -68 -7 -80 -65 -50 -28 15 -34 15 -70 -2 -34 -15
-41 -15 -53 -3 -10 10 -12 24 -6 51 8 33 6 39 -20 64 -48 46 -35 74 32 74 23
0 32 6 40 27 24 64 53 68 84 10z m425 3 c18 -35 25 -40 54 -40 47 0 63 -22 42
-55 -10 -15 -24 -29 -32 -32 -11 -4 -13 -16 -8 -54 8 -60 -10 -72 -63 -44 -33
18 -35 18 -68 1 -51 -28 -69 -16 -61 39 5 42 3 48 -27 75 -26 24 -30 32 -21
47 7 11 26 19 48 21 31 3 39 9 56 43 27 52 53 52 80 -1z m423 -2 c15 -31 24
-38 47 -38 66 0 78 -29 31 -74 -26 -25 -28 -31 -20 -64 6 -27 4 -41 -6 -51
-12 -12 -19 -12 -53 3 -36 17 -42 17 -70 2 -58 -30 -74 -18 -65 50 4 33 1 43
-21 63 -44 42 -31 71 33 71 23 0 31 7 46 40 24 52 52 51 78 -2z"/>
<path d="M2119 2821 c-21 -22 -13 -51 16 -51 29 0 39 33 16 53 -14 13 -18 13
-32 -2z"/>
<path d="M2541 2821 c-19 -12 -4 -51 19 -51 23 0 38 39 19 51 -8 5 -16 9 -19
9 -3 0 -11 -4 -19 -9z"/>
<path d="M2968 2822 c-20 -24 -11 -52 17 -52 29 0 39 32 15 53 -17 14 -20 14
-32 -1z"/>
<path d="M2090 2511 c0 -40 6 -41 196 -41 101 0 184 3 184 6 0 3 -5 14 -10 25
-10 18 -23 19 -190 19 -103 0 -180 -4 -180 -9z"/>
<path d="M2660 2501 c-5 -11 -10 -22 -10 -25 0 -3 83 -6 184 -6 190 0 196 1
196 41 0 5 -77 9 -180 9 -167 0 -180 -1 -190 -19z"/>
<path d="M2340 1850 l0 -140 220 0 220 0 0 140 0 140 -220 0 -220 0 0 -140z"/>
<path d="M2100 1625 c-7 -8 -15 -35 -18 -60 l-5 -45 483 0 483 0 -5 45 c-10
80 23 75 -478 75 -386 0 -449 -2 -460 -15z"/>
<path d="M3779 1312 c-43 -28 -89 -85 -89 -111 0 -8 58 -11 201 -11 224 0 214
-4 167 66 -38 56 -83 78 -162 82 -65 3 -75 1 -117 -26z"/>
<path d="M1781 1298 c-79 -209 -94 -260 -80 -269 8 -5 371 -9 867 -9 709 0
854 2 858 14 3 7 -17 73 -44 147 l-49 134 -772 3 -771 2 -9 -22z"/>
</g>
</svg>
