<?xml version="1.0" standalone="no"?>
<!DOCTYPE svg PUBLIC "-//W3C//DTD SVG 20010904//EN"
 "http://www.w3.org/TR/2001/REC-SVG-20010904/DTD/svg10.dtd">
<svg version="1.0" xmlns="http://www.w3.org/2000/svg"
 width="512.000000pt" height="512.000000pt" viewBox="0 0 512.000000 512.000000"
 preserveAspectRatio="xMidYMid meet">

<g transform="translate(0.000000,512.000000) scale(0.100000,-0.100000)"
fill="#000000" stroke="none">
<path d="M1065 5095 l-25 -24 0 -535 0 -534 -242 -4 c-235 -3 -245 -4 -293
-28 -64 -31 -124 -91 -155 -155 l-25 -50 -3 -1482 -2 -1483 -56 0 c-87 0 -133
-18 -190 -75 -68 -68 -77 -105 -72 -283 3 -137 4 -140 41 -214 44 -91 102
-147 195 -191 l67 -32 2256 0 2255 0 76 37 c91 45 147 103 191 196 30 63 32
75 35 205 5 168 -5 210 -65 277 -51 57 -108 80 -195 80 l-58 0 -2 1483 -3
1482 -34 63 c-37 69 -80 109 -151 144 -42 21 -60 23 -287 26 l-243 4 0 534 0
535 -25 24 -24 25 -1471 0 -1471 0 -24 -25z m2855 -295 l0 -160 -1360 0 -1360
0 0 160 0 160 1360 0 1360 0 0 -160z m0 -2000 l0 -1680 -1360 0 -1360 0 0
1680 0 1680 1360 0 1360 0 0 -1680z m-2880 960 l0 -80 -175 0 c-173 0 -176 0
-200 -25 l-25 -24 0 -1311 0 -1311 25 -24 24 -25 1871 0 1871 0 24 25 25 24 0
1311 0 1311 -25 24 c-24 25 -27 25 -200 25 l-175 0 0 80 0 80 213 0 c201 0
215 -1 257 -22 33 -17 51 -35 68 -68 l22 -44 0 -1453 0 -1453 -2080 0 -2080 0
0 1453 0 1453 23 44 c16 33 34 51 67 68 42 21 56 22 257 22 l213 0 0 -80z m0
-1440 l0 -1200 -120 0 -120 0 0 1200 0 1200 120 0 120 0 0 -1200z m3280 0 l0
-1200 -120 0 -120 0 0 1200 0 1200 120 0 120 0 0 -1200z m-2529 -1791 c43 -66
83 -115 97 -120 13 -5 318 -9 684 -9 l660 0 28 30 c16 17 54 71 85 120 l57 90
743 0 c524 0 751 -3 768 -11 14 -6 30 -22 36 -36 17 -38 14 -211 -6 -268 -20
-59 -85 -127 -139 -146 -58 -21 -4430 -21 -4488 0 -54 19 -119 87 -139 146
-20 57 -23 230 -6 269 6 13 21 29 33 34 14 7 275 11 767 11 l746 1 74 -111z
m1393 71 l-27 -40 -597 0 -597 0 -27 40 -26 40 650 0 650 0 -26 -40z"/>
<path d="M1385 4855 c-50 -49 -15 -135 55 -135 41 0 80 39 80 80 0 41 -39 80
-80 80 -19 0 -40 -9 -55 -25z"/>
<path d="M1705 4855 c-50 -49 -15 -135 55 -135 41 0 80 39 80 80 0 41 -39 80
-80 80 -19 0 -40 -9 -55 -25z"/>
<path d="M2025 4855 c-50 -49 -15 -135 55 -135 41 0 80 39 80 80 0 41 -39 80
-80 80 -19 0 -40 -9 -55 -25z"/>
<path d="M2405 4305 c-276 -51 -510 -229 -631 -480 -69 -142 -87 -224 -87
-390 0 -123 3 -151 27 -229 95 -315 317 -534 628 -618 119 -32 317 -32 438 0
277 75 509 279 605 535 167 445 -69 977 -508 1142 -138 52 -325 68 -472 40z
m293 -161 c409 -84 660 -483 556 -887 -18 -72 -76 -193 -114 -238 l-26 -32
-33 67 c-42 82 -123 172 -198 222 -32 20 -59 38 -61 40 -2 1 12 23 31 48 56
73 79 145 78 254 0 111 -18 181 -64 248 -66 96 -193 164 -307 164 -156 0 -311
-115 -355 -263 -20 -67 -20 -218 1 -287 17 -56 50 -116 78 -139 9 -7 16 -17
16 -21 0 -4 -27 -24 -59 -44 -76 -47 -159 -138 -202 -222 l-33 -67 -28 33
c-38 46 -94 163 -112 237 -103 403 145 800 554 888 88 18 185 18 278 -1z m-74
-286 c53 -16 121 -84 135 -134 16 -57 13 -169 -5 -212 -33 -79 -110 -132 -193
-132 -62 0 -89 10 -136 52 -53 46 -75 98 -75 183 0 97 14 140 63 189 62 61
129 78 211 54z m107 -685 c113 -52 182 -129 225 -248 l24 -65 -43 -27 c-23
-15 -82 -43 -132 -62 -89 -36 -91 -36 -245 -36 -154 0 -156 0 -245 36 -49 19
-109 47 -132 62 -39 25 -42 30 -36 59 16 88 92 196 174 249 87 55 141 70 249
66 82 -2 104 -7 161 -34z"/>
<path d="M1625 2375 c-25 -24 -25 -26 -25 -215 0 -189 0 -191 25 -215 l24 -25
911 0 911 0 24 25 c25 24 25 26 25 215 0 189 0 191 -25 215 l-24 25 -911 0
-911 0 -24 -25z m1735 -215 l0 -80 -800 0 -800 0 0 80 0 80 800 0 800 0 0 -80z"/>
<path d="M1625 1735 c-25 -24 -25 -26 -25 -215 0 -189 0 -191 25 -215 l24 -25
911 0 911 0 24 25 c25 24 25 26 25 215 0 189 0 191 -25 215 l-24 25 -911 0
-911 0 -24 -25z m1735 -215 l0 -80 -800 0 -800 0 0 80 0 80 800 0 800 0 0 -80z"/>
</g>
</svg>
